ffmpeg started on 2016-12-08 at 09:04:14
Report written to "Output/x264/results/ffmpeg/sintelslower15000k.log"
Command line:
Tools/ffmpeg/ffmpeg -benchmark -y -i Input/y4m/sintel.y4m -c:v libx264 -preset slower -b:v 15000k -an Output/x264/encoded/sintelslower15000k.mkv
ffmpeg version N-82227-gdb23fde Copyright (c) 2000-2016 the FFmpeg developers
  built with gcc 5.4.0 (Ubuntu 5.4.0-6ubuntu1~16.04.2) 20160609
  configuration: --prefix=/home/jaroslav/ffmpeg_build --pkg-config-flags=--static --extra-cflags=-I/home/jaroslav/ffmpeg_build/include --extra-ldflags=-L/home/jaroslav/ffmpeg_build/lib --bindir=/home/jaroslav/bin --enable-gpl --enable-libass --enable-libfdk-aac --enable-libfreetype --enable-libmp3lame --enable-libopus --enable-libtheora --enable-libvorbis --enable-libvpx --enable-libx264 --enable-libx265 --enable-nvenc --enable-libmfx --enable-libxvid --enable-libgsm --enable-libopencore-amrnb --enable-version3 --enable-nonfree
  libavutil      55. 35.100 / 55. 35.100
  libavcodec     57. 66.101 / 57. 66.101
  libavformat    57. 57.100 / 57. 57.100
  libavdevice    57.  2.100 / 57.  2.100
  libavfilter     6. 66.100 /  6. 66.100
  libswscale      4.  3.100 /  4.  3.100
  libswresample   2.  4.100 /  2.  4.100
  libpostproc    54.  2.100 / 54.  2.100
Input #0, yuv4mpegpipe, from 'Input/y4m/sintel.y4m':
  Duration: 00:00:20.83, start: 0.000000, bitrate: 2057307 kb/s
    Stream #0:0: Video: rawvideo (I420 / 0x30323449), yuv420p(progressive), 4096x1744, SAR 1:1 DAR 256:109, 24 fps, 24 tbr, 24 tbn, 24 tbc
[libx264 @ 0x3d5b1c0] using SAR=1/1
[libx264 @ 0x3d5b1c0] DPB size (8 frames, 223232 mbs) > level limit (6 frames, 184320 mbs)
[libx264 @ 0x3d5b1c0] using cpu capabilities: MMX2 SSE2Fast SSSE3 SSE4.2 AVX FMA3 AVX2 LZCNT BMI2
[libx264 @ 0x3d5b1c0] profile High, level 5.2
[libx264 @ 0x3d5b1c0] 264 - core 148 - H.264/MPEG-4 AVC codec - Copyleft 2003-2016 - http://www.videolan.org/x264.html - options: cabac=1 ref=8 deblock=1:0:0 analyse=0x3:0x133 me=umh subme=9 psy=1 psy_rd=1.00:0.00 mixed_ref=1 me_range=16 chroma_me=1 trellis=2 8x8dct=1 cqm=0 deadzone=21,11 fast_pskip=1 chroma_qp_offset=-2 threads=6 lookahead_threads=1 sliced_threads=0 nr=0 decimate=1 interlaced=0 bluray_compat=0 constrained_intra=0 bframes=3 b_pyramid=2 b_adapt=2 b_bias=0 direct=3 weightb=1 open_gop=0 weightp=2 keyint=250 keyint_min=24 scenecut=40 intra_refresh=0 rc_lookahead=60 rc=abr mbtree=1 bitrate=15000 ratetol=1.0 qcomp=0.60 qpmin=0 qpmax=69 qpstep=4 ip_ratio=1.40 aq=1:1.00
Output #0, matroska, to 'Output/x264/encoded/sintelslower15000k.mkv':
  Metadata:
    encoder         : Lavf57.57.100
    Stream #0:0: Video: h264 (libx264) (H264 / 0x34363248), yuv420p, 4096x1744 [SAR 1:1 DAR 256:109], q=-1--1, 15000 kb/s, 24 fps, 1k tbn, 24 tbc
    Metadata:
      encoder         : Lavc57.66.101 libx264
    Side data:
      cpb: bitrate max/min/avg: 0/0/15000000 buffer size: 0 vbv_delay: -1
Stream mapping:
  Stream #0:0 -> #0:0 (rawvideo (native) -> h264 (libx264))
Press [q] to stop, [?] for help
frame=    3 fps=1.5 q=0.0 size=       0kB time=00:00:00.00 bitrate=N/A speed=   0x    frame=    6 fps=2.0 q=0.0 size=       0kB time=00:00:00.00 bitrate=N/A speed=   0x    frame=    7 fps=2.0 q=0.0 size=       0kB time=00:00:00.00 bitrate=N/A speed=   0x    frame=    8 fps=1.9 q=0.0 size=       0kB time=00:00:00.00 bitrate=N/A speed=   0x    frame=    9 fps=1.9 q=0.0 size=       0kB time=00:00:00.00 bitrate=N/A speed=   0x    frame=   10 fps=1.9 q=0.0 size=       0kB time=00:00:00.00 bitrate=N/A speed=   0x    frame=   11 fps=1.8 q=0.0 size=       0kB time=00:00:00.00 bitrate=N/A speed=   0x    frame=   12 fps=1.8 q=0.0 size=       0kB time=00:00:00.00 bitrate=N/A speed=   0x    frame=   13 fps=1.8 q=0.0 size=       0kB time=00:00:00.00 bitrate=N/A speed=   0x    frame=   14 fps=1.8 q=0.0 size=       0kB time=00:00:00.00 bitrate=N/A speed=   0x    frame=   15 fps=1.8 q=0.0 size=       0kB time=00:00:00.00 bitrate=N/A speed=   0x    frame=   16 fps=1.8 q=0.0 size=       0kB time=00:00:00.00 bitrate=N/A speed=   0x    frame=   17 fps=1.8 q=0.0 size=       0kB time=00:00:00.00 bitrate=N/A speed=   0x    frame=   18 fps=1.8 q=0.0 size=       0kB time=00:00:00.00 bitrate=N/A speed=   0x    frame=   19 fps=1.8 q=0.0 size=       0kB time=00:00:00.00 bitrate=N/A speed=   0x    frame=   20 fps=1.7 q=0.0 size=       0kB time=00:00:00.00 bitrate=N/A speed=   0x    frame=   21 fps=1.7 q=0.0 size=       0kB time=00:00:00.00 bitrate=N/A speed=   0x    frame=   22 fps=1.7 q=0.0 size=       0kB time=00:00:00.00 bitrate=N/A speed=   0x    frame=   23 fps=1.7 q=0.0 size=       0kB time=00:00:00.00 bitrate=N/A speed=   0x    frame=   24 fps=1.7 q=0.0 size=       0kB time=00:00:00.00 bitrate=N/A speed=   0x    frame=   25 fps=1.7 q=0.0 size=       0kB time=00:00:00.00 bitrate=N/A speed=   0x    frame=   26 fps=1.7 q=0.0 size=       0kB time=00:00:00.00 bitrate=N/A speed=   0x    frame=   27 fps=1.7 q=0.0 size=       0kB time=00:00:00.00 bitrate=N/A speed=   0x    frame=   28 fps=1.7 q=0.0 size=       0kB time=00:00:00.00 bitrate=N/A speed=   0x    frame=   29 fps=1.7 q=0.0 size=       0kB time=00:00:00.00 bitrate=N/A speed=   0x    frame=   30 fps=1.7 q=0.0 size=       0kB time=00:00:00.00 bitrate=N/A speed=   0x    frame=   31 fps=1.7 q=0.0 size=       0kB time=00:00:00.00 bitrate=N/A speed=   0x    frame=   32 fps=1.7 q=0.0 size=       0kB time=00:00:00.00 bitrate=N/A speed=   0x    frame=   33 fps=1.7 q=0.0 size=       0kB time=00:00:00.00 bitrate=N/A speed=   0x    frame=   34 fps=1.7 q=0.0 size=       0kB time=00:00:00.00 bitrate=N/A speed=   0x    frame=   36 fps=1.7 q=0.0 size=       0kB time=00:00:00.00 bitrate=N/A speed=   0x    frame=   39 fps=1.8 q=0.0 size=       0kB time=00:00:00.00 bitrate=N/A speed=   0x    frame=   40 fps=1.8 q=0.0 size=       0kB time=00:00:00.00 bitrate=N/A speed=   0x    frame=   41 fps=1.8 q=0.0 size=       0kB time=00:00:00.00 bitrate=N/A speed=   0x    frame=   42 fps=1.8 q=0.0 size=       0kB time=00:00:00.00 bitrate=N/A speed=   0x    frame=   43 fps=1.8 q=0.0 size=       0kB time=00:00:00.00 bitrate=N/A speed=   0x    frame=   44 fps=1.8 q=0.0 size=       0kB time=00:00:00.00 bitrate=N/A speed=   0x    frame=   45 fps=1.8 q=0.0 size=       0kB time=00:00:00.00 bitrate=N/A speed=   0x    frame=   47 fps=1.8 q=0.0 size=       0kB time=00:00:00.00 bitrate=N/A speed=   0x    frame=   48 fps=1.8 q=0.0 size=       0kB time=00:00:00.00 bitrate=N/A speed=   0x    frame=   49 fps=1.8 q=0.0 size=       0kB time=00:00:00.00 bitrate=N/A speed=   0x    frame=   50 fps=1.8 q=0.0 size=       0kB time=00:00:00.00 bitrate=N/A speed=   0x    frame=   51 fps=1.8 q=0.0 size=       0kB time=00:00:00.00 bitrate=N/A speed=   0x    frame=   52 fps=1.8 q=0.0 size=       0kB time=00:00:00.00 bitrate=N/A speed=   0x    frame=   53 fps=1.8 q=0.0 size=       0kB time=00:00:00.00 bitrate=N/A speed=   0x    frame=   54 fps=1.8 q=0.0 size=       0kB time=00:00:00.00 bitrate=N/A speed=   0x    frame=   56 fps=1.8 q=0.0 size=       0kB time=00:00:00.00 bitrate=N/A speed=   0x    frame=   57 fps=1.8 q=0.0 size=       0kB time=00:00:00.00 bitrate=N/A speed=   0x    frame=   59 fps=1.8 q=0.0 size=       0kB time=00:00:00.00 bitrate=N/A speed=   0x    frame=   61 fps=1.8 q=0.0 size=       0kB time=00:00:00.00 bitrate=N/A speed=   0x    frame=   62 fps=1.8 q=0.0 size=       0kB time=00:00:00.00 bitrate=N/A speed=   0x    frame=   63 fps=1.8 q=0.0 size=       0kB time=00:00:00.00 bitrate=N/A speed=   0x    frame=   65 fps=1.8 q=0.0 size=       0kB time=00:00:00.00 bitrate=N/A speed=   0x    frame=   66 fps=1.8 q=0.0 size=       0kB time=00:00:00.00 bitrate=N/A speed=   0x    frame=   67 fps=1.6 q=0.0 size=       0kB time=00:00:00.00 bitrate=N/A speed=   0x    frame=   68 fps=1.6 q=0.0 size=       0kB time=00:00:00.00 bitrate=N/A speed=   0x    frame=   70 fps=1.6 q=0.0 size=       0kB time=00:00:00.00 bitrate=N/A speed=   0x    frame=   71 fps=1.6 q=21.0 size=       1kB time=-00:00:00.08 bitrate=N/A speed=N/A    frame=   72 fps=1.6 q=21.0 size=       1kB time=-00:00:00.04 bitrate=N/A speed=N/A    frame=   73 fps=1.6 q=30.0 size=       1kB time=00:00:00.00 bitrate=5888.0kbits/s speed=2.21e-05x    frame=   74 fps=1.6 q=25.0 size=       1kB time=00:00:00.04 bitrate= 136.9kbits/s speed=0.000924x    frame=   75 fps=1.6 q=27.0 size=       1kB time=00:00:00.08 bitrate=  70.1kbits/s speed=0.00177x    frame=   77 fps=1.6 q=34.0 size=       1kB time=00:00:00.16 bitrate=  35.0kbits/s speed=0.0034x    frame=   78 fps=1.6 q=39.0 size=       1kB time=00:00:00.20 bitrate=  28.2kbits/s speed=0.00418x    frame=   81 fps=1.6 q=39.0 size=       1kB time=00:00:00.33 bitrate=  17.6kbits/s speed=0.00654x    frame=   83 fps=1.6 q=39.0 size=       1kB time=00:00:00.41 bitrate=  14.1kbits/s speed=0.00795x    frame=   85 fps=1.6 q=39.0 size=       1kB time=00:00:00.50 bitrate=  11.8kbits/s speed=0.00939x    frame=   86 fps=1.6 q=38.0 size=       1kB time=00:00:00.54 bitrate=  10.8kbits/s speed=0.01x    frame=   89 fps=1.6 q=38.0 size=       1kB time=00:00:00.66 bitrate=   8.8kbits/s speed=0.0122x    frame=   90 fps=1.6 q=38.0 size=       1kB time=00:00:00.70 bitrate=   8.3kbits/s speed=0.0127x    frame=   92 fps=1.6 q=38.0 size=       1kB time=00:00:00.79 bitrate=   7.4kbits/s speed=0.0139x    frame=   94 fps=1.6 q=38.0 size=       1kB time=00:00:00.87 bitrate=   6.7kbits/s speed=0.0151x    frame=   95 fps=1.6 q=38.0 size=       1kB time=00:00:00.91 bitrate=   6.4kbits/s speed=0.0156x    frame=   98 fps=1.6 q=37.0 size=       1kB time=00:00:01.04 bitrate=   5.6kbits/s speed=0.0175x    frame=  100 fps=1.7 q=37.0 size=       1kB time=00:00:01.12 bitrate=   5.2kbits/s speed=0.0186x    frame=  101 fps=1.6 q=37.0 size=       1kB time=00:00:01.16 bitrate=   5.0kbits/s speed=0.019x    frame=  103 fps=1.7 q=37.0 size=       1kB time=00:00:01.25 bitrate=   4.7kbits/s speed=0.0201x    frame=  104 fps=1.7 q=36.0 size=       1kB time=00:00:01.29 bitrate=   4.6kbits/s speed=0.0205x    frame=  106 fps=1.7 q=36.0 size=       1kB time=00:00:01.37 bitrate=   4.3kbits/s speed=0.0216x    frame=  107 fps=1.7 q=36.0 size=       1kB time=00:00:01.41 bitrate=   4.2kbits/s speed=0.0221x    frame=  108 fps=1.7 q=36.0 size=       1kB time=00:00:01.45 bitrate=   4.0kbits/s speed=0.0225x    frame=  109 fps=1.7 q=36.0 size=       1kB time=00:00:01.50 bitrate=   3.9kbits/s speed=0.023x    frame=  111 fps=1.7 q=36.0 size=       1kB time=00:00:01.58 bitrate=   3.7kbits/s speed=0.024x    frame=  112 fps=1.7 q=36.0 size=       1kB time=00:00:01.62 bitrate=   3.6kbits/s speed=0.0244x    frame=  114 fps=1.7 q=35.0 size=       1kB time=00:00:01.70 bitrate=   3.4kbits/s speed=0.0254x    frame=  115 fps=1.7 q=35.0 size=       1kB time=00:00:01.75 bitrate=   3.4kbits/s speed=0.0258x    frame=  116 fps=1.7 q=35.0 size=       1kB time=00:00:01.79 bitrate=   3.3kbits/s speed=0.0262x    frame=  118 fps=1.7 q=35.0 size=       1kB time=00:00:01.87 bitrate=   3.1kbits/s speed=0.0271x    frame=  121 fps=1.7 q=35.0 size=    5145kB time=00:00:02.00 bitrate=21062.4kbits/s speed=0.0286x    frame=  122 fps=1.7 q=35.0 size=    5145kB time=00:00:02.04 bitrate=20629.4kbits/s speed=0.0288x    frame=  123 fps=1.7 q=35.0 size=    5145kB time=00:00:02.08 bitrate=20223.5kbits/s speed=0.0291x    frame=  124 fps=1.7 q=35.0 size=    5145kB time=00:00:02.12 bitrate=19824.0kbits/s speed=0.0294x    frame=  125 fps=1.7 q=35.0 size=    5145kB time=00:00:02.16 bitrate=19440.0kbits/s speed=0.0296x    frame=  127 fps=1.7 q=35.0 size=    5145kB time=00:00:02.25 bitrate=18723.2kbits/s speed=0.0304x    frame=  128 fps=1.7 q=35.0 size=    5145kB time=00:00:02.29 bitrate=18380.2kbits/s speed=0.0306x    frame=  130 fps=1.7 q=35.0 size=    5145kB time=00:00:02.37 bitrate=17738.2kbits/s speed=0.0313x    frame=  132 fps=1.7 q=35.0 size=    5145kB time=00:00:02.45 bitrate=17139.4kbits/s speed=0.0319x    frame=  134 fps=1.7 q=34.0 size=    5145kB time=00:00:02.54 bitrate=16573.3kbits/s speed=0.0326x    frame=  136 fps=1.7 q=34.0 size=    5145kB time=00:00:02.62 bitrate=16049.5kbits/s speed=0.0333x    frame=  137 fps=1.7 q=34.0 size=    5145kB time=00:00:02.66 bitrate=15796.8kbits/s speed=0.0334x    frame=  139 fps=1.7 q=34.0 size=    5145kB time=00:00:02.75 bitrate=15320.2kbits/s speed=0.0341x    frame=  141 fps=1.7 q=34.0 size=    5145kB time=00:00:02.83 bitrate=14871.5kbits/s speed=0.0346x    frame=  142 fps=1.7 q=34.0 size=    5145kB time=00:00:02.87 bitrate=14654.3kbits/s speed=0.0349x    frame=  143 fps=1.7 q=34.0 size=    5145kB time=00:00:02.91 bitrate=14443.4kbits/s speed=0.035x    frame=  145 fps=1.7 q=34.0 size=    5145kB time=00:00:03.00 bitrate=14043.9kbits/s speed=0.0356x    frame=  147 fps=1.7 q=34.0 size=    5145kB time=00:00:03.08 bitrate=13666.0kbits/s speed=0.0363x    frame=  149 fps=1.7 q=33.0 size=    5145kB time=00:00:03.16 bitrate=13303.6kbits/s speed=0.0367x    frame=  151 fps=1.7 q=33.0 size=    5145kB time=00:00:03.25 bitrate=12964.0kbits/s speed=0.0373x    frame=  152 fps=1.7 q=33.0 size=    5145kB time=00:00:03.29 bitrate=12798.6kbits/s speed=0.0375x    frame=  153 fps=1.7 q=33.0 size=    5145kB time=00:00:03.33 bitrate=12641.2kbits/s speed=0.0377x    frame=  154 fps=1.7 q=33.0 size=    5145kB time=00:00:03.37 bitrate=12484.0kbits/s speed=0.038x    frame=  155 fps=1.7 q=33.0 size=    5145kB time=00:00:03.41 bitrate=12330.6kbits/s speed=0.0382x    frame=  156 fps=1.7 q=33.0 size=    5145kB time=00:00:03.45 bitrate=12184.4kbits/s speed=0.0383x    frame=  158 fps=1.7 q=33.0 size=    5145kB time=00:00:03.54 bitrate=11895.5kbits/s speed=0.0387x    frame=  160 fps=1.7 q=33.0 size=    5145kB time=00:00:03.62 bitrate=11623.2kbits/s speed=0.0393x    frame=  162 fps=1.7 q=33.0 size=    5145kB time=00:00:03.70 bitrate=11363.1kbits/s speed=0.0399x    frame=  164 fps=1.7 q=33.0 size=    5145kB time=00:00:03.79 bitrate=11111.5kbits/s speed=0.0404x    frame=  165 fps=1.7 q=33.0 size=    5145kB time=00:00:03.83 bitrate=10992.7kbits/s speed=0.0405x    frame=  167 fps=1.7 q=33.0 size=    5145kB time=00:00:03.91 bitrate=10757.0kbits/s speed=0.0408x    frame=  170 fps=1.8 q=32.0 size=    5145kB time=00:00:04.04 bitrate=10424.4kbits/s speed=0.0418x    frame=  172 fps=1.8 q=32.0 size=    5145kB time=00:00:04.12 bitrate=10214.7kbits/s speed=0.0423x    frame=  173 fps=1.7 q=32.0 size=    5145kB time=00:00:04.16 bitrate=10111.8kbits/s speed=0.042x    frame=  176 fps=1.8 q=32.0 size=    5145kB time=00:00:04.29 bitrate=9817.3kbits/s speed=0.043x    frame=  177 fps=1.8 q=32.0 size=    5145kB time=00:00:04.33 bitrate=9724.5kbits/s speed=0.0431x    frame=  179 fps=1.8 q=32.0 size=    5145kB time=00:00:04.41 bitrate=9539.6kbits/s speed=0.0436x    frame=  181 fps=1.8 q=30.0 size=    5145kB time=00:00:04.50 bitrate=9363.7kbits/s speed=0.0442x    frame=  183 fps=1.8 q=32.0 size=    5145kB time=00:00:04.58 bitrate=9194.1kbits/s speed=0.0444x    frame=  185 fps=1.8 q=32.0 size=    5145kB time=00:00:04.66 bitrate=9028.7kbits/s speed=0.0449x    frame=  190 fps=1.8 q=32.0 size=    8764kB time=00:00:04.87 bitrate=14723.3kbits/s speed=0.0466x    frame=  191 fps=1.8 q=32.0 size=    8764kB time=00:00:04.91 bitrate=14597.5kbits/s speed=0.0467x    frame=  192 fps=1.8 q=32.0 size=    8764kB time=00:00:04.95 bitrate=14476.8kbits/s speed=0.0468x    frame=  194 fps=1.8 q=32.0 size=    8764kB time=00:00:05.04 bitrate=14235.7kbits/s speed=0.0473x    frame=  196 fps=1.8 q=32.0 size=    8764kB time=00:00:05.12 bitrate=14005.2kbits/s speed=0.0478x    frame=  197 fps=1.8 q=32.0 size=    8764kB time=00:00:05.16 bitrate=13891.4kbits/s speed=0.0479x    frame=  198 fps=1.8 q=32.0 size=    8764kB time=00:00:05.20 bitrate=13782.0kbits/s speed=0.0479x    frame=  200 fps=1.8 q=32.0 size=    8764kB time=00:00:05.29 bitrate=13563.3kbits/s speed=0.0483x    frame=  201 fps=1.8 q=32.0 size=    8764kB time=00:00:05.33 bitrate=13459.1kbits/s speed=0.0484x    frame=  202 fps=1.8 q=32.0 size=    8764kB time=00:00:05.37 bitrate=13353.9kbits/s speed=0.0484x    frame=  204 fps=1.8 q=32.0 size=    8764kB time=00:00:05.45 bitrate=13150.9kbits/s speed=0.0489x    frame=  206 fps=1.8 q=32.0 size=    8764kB time=00:00:05.54 bitrate=12951.6kbits/s speed=0.0493x    frame=  208 fps=1.8 q=31.0 size=    8764kB time=00:00:05.62 bitrate=12760.5kbits/s speed=0.0495x    frame=  210 fps=1.8 q=31.0 size=    8764kB time=00:00:05.70 bitrate=12575.0kbits/s speed=0.0499x    frame=  212 fps=1.8 q=31.0 size=    8764kB time=00:00:05.79 bitrate=12392.7kbits/s speed=0.0502x    frame=  214 fps=1.8 q=31.0 size=    8764kB time=00:00:05.87 bitrate=12217.6kbits/s speed=0.0507x    frame=  216 fps=1.8 q=31.0 size=    8764kB time=00:00:05.95 bitrate=12047.4kbits/s speed=0.051x    frame=  217 fps=1.8 q=31.0 size=    8764kB time=00:00:06.00 bitrate=11963.1kbits/s speed=0.051x    frame=  219 fps=1.8 q=31.0 size=    8764kB time=00:00:06.08 bitrate=11799.9kbits/s speed=0.0514x    frame=  221 fps=1.9 q=31.0 size=    8764kB time=00:00:06.16 bitrate=11639.2kbits/s speed=0.0517x    frame=  222 fps=1.9 q=31.0 size=    8764kB time=00:00:06.20 bitrate=11562.4kbits/s speed=0.0518x    frame=  224 fps=1.9 q=31.0 size=    8764kB time=00:00:06.29 bitrate=11408.0kbits/s speed=0.0522x    frame=  228 fps=1.9 q=31.0 size=    8764kB time=00:00:06.45 bitrate=11114.8kbits/s speed=0.0525x    frame=  231 fps=1.9 q=31.0 size=    8764kB time=00:00:06.58 bitrate=10903.8kbits/s speed=0.0533x    frame=  233 fps=1.9 q=31.0 size=    8764kB time=00:00:06.66 bitrate=10766.4kbits/s speed=0.0535x    frame=  234 fps=1.9 q=31.0 size=    8764kB time=00:00:06.70 bitrate=10700.7kbits/s speed=0.0534x    frame=  236 fps=1.9 q=31.0 size=    8764kB time=00:00:06.79 bitrate=10568.3kbits/s speed=0.0537x    frame=  237 fps=1.9 q=31.0 size=    8764kB time=00:00:06.83 bitrate=10504.9kbits/s speed=0.0538x    frame=  240 fps=1.9 q=31.0 size=    8764kB time=00:00:06.95 bitrate=10316.2kbits/s speed=0.0543x    frame=  242 fps=1.9 q=31.0 size=    8764kB time=00:00:07.04 bitrate=10193.2kbits/s speed=0.0545x    frame=  243 fps=1.9 q=31.0 size=    8764kB time=00:00:07.08 bitrate=10134.2kbits/s speed=0.0546x    frame=  244 fps=1.9 q=31.0 size=    8764kB time=00:00:07.12 bitrate=10074.5kbits/s speed=0.0545x    frame=  246 fps=1.9 q=30.0 size=    8764kB time=00:00:07.20 bitrate=9958.5kbits/s speed=0.0549x    frame=  248 fps=1.9 q=30.0 size=    8764kB time=00:00:07.29 bitrate=9843.8kbits/s speed=0.0553x    frame=  250 fps=1.9 q=31.0 size=    8764kB time=00:00:07.37 bitrate=9733.0kbits/s speed=0.0553x    frame=  253 fps=1.9 q=31.0 size=    8764kB time=00:00:07.50 bitrate=9570.8kbits/s speed=0.0559x    frame=  258 fps=1.9 q=30.0 size=   13137kB time=00:00:07.70 bitrate=13960.6kbits/s speed=0.057x    frame=  260 fps=1.9 q=30.0 size=   13137kB time=00:00:07.79 bitrate=13810.1kbits/s speed=0.0574x    frame=  262 fps=1.9 q=30.0 size=   13137kB time=00:00:07.87 bitrate=13664.6kbits/s speed=0.0577x    frame=  264 fps=1.9 q=30.0 size=   13137kB time=00:00:07.95 bitrate=13522.1kbits/s speed=0.0581x    frame=  266 fps=1.9 q=30.0 size=   13137kB time=00:00:08.04 bitrate=13380.9kbits/s speed=0.0583x    frame=  267 fps=1.9 q=30.0 size=   13137kB time=00:00:08.08 bitrate=13313.0kbits/s speed=0.0583x    frame=  269 fps=1.9 q=30.0 size=   13137kB time=00:00:08.16 bitrate=13176.1kbits/s speed=0.0584x    frame=  271 fps=1.9 q=30.0 size=   13137kB time=00:00:08.25 bitrate=13043.5kbits/s speed=0.0587x    frame=  273 fps=1.9 q=30.0 size=   13137kB time=00:00:08.33 bitrate=12913.6kbits/s speed=0.0589x    frame=  275 fps=1.9 q=30.0 size=   13137kB time=00:00:08.41 bitrate=12784.8kbits/s speed=0.0591x    frame=  276 fps=1.9 q=30.0 size=   13137kB time=00:00:08.45 bitrate=12722.8kbits/s speed=0.0591x    frame=  278 fps=1.9 q=30.0 size=   13137kB time=00:00:08.54 bitrate=12597.7kbits/s speed=0.0593x    frame=  279 fps=1.9 q=30.0 size=   13137kB time=00:00:08.58 bitrate=12537.5kbits/s speed=0.0592x    frame=  283 fps=1.9 q=30.0 size=   13137kB time=00:00:08.75 bitrate=12298.3kbits/s speed=0.06x    frame=  284 fps=1.9 q=30.0 size=   13137kB time=00:00:08.79 bitrate=12239.5kbits/s speed=0.0599x    frame=  287 fps=1.9 q=30.0 size=   13137kB time=00:00:08.91 bitrate=12068.0kbits/s speed=0.0601x    frame=  290 fps=1.9 q=30.0 size=   13137kB time=00:00:09.04 bitrate=11901.2kbits/s speed=0.0605x    frame=  293 fps=1.9 q=30.0 size=   13137kB time=00:00:09.16 bitrate=11738.9kbits/s speed=0.0606x    frame=  295 fps=1.9 q=30.0 size=   13137kB time=00:00:09.25 bitrate=11633.6kbits/s speed=0.061x    frame=  298 fps=2.0 q=30.0 size=   13137kB time=00:00:09.37 bitrate=11478.5kbits/s speed=0.0616x    frame=  299 fps=2.0 q=30.0 size=   13137kB time=00:00:09.41 bitrate=11427.3kbits/s speed=0.0616x    frame=  301 fps=1.9 q=30.0 size=   13137kB time=00:00:09.50 bitrate=11327.5kbits/s speed=0.0614x    frame=  305 fps=2.0 q=30.0 size=   13137kB time=00:00:09.66 bitrate=11131.8kbits/s speed=0.0623x    frame=  307 fps=2.0 q=30.0 size=   13137kB time=00:00:09.75 bitrate=11037.0kbits/s speed=0.0621x    frame=  311 fps=2.0 q=30.0 size=   13137kB time=00:00:09.91 bitrate=10851.2kbits/s speed=0.0626x    frame=  313 fps=2.0 q=29.0 size=   13137kB time=00:00:10.00 bitrate=10761.1kbits/s speed=0.0629x    frame=  317 fps=2.0 q=29.0 size=   13137kB time=00:00:10.16 bitrate=10584.4kbits/s speed=0.0633x    frame=  320 fps=2.0 q=29.0 size=   13137kB time=00:00:10.29 bitrate=10455.9kbits/s speed=0.0635x    frame=  323 fps=2.0 q=29.0 size=   13137kB time=00:00:10.41 bitrate=10330.4kbits/s speed=0.064x    frame=  325 fps=2.0 q=29.0 size=   13137kB time=00:00:10.50 bitrate=10248.8kbits/s speed=0.0643x    frame=  327 fps=2.0 q=29.0 size=   13137kB time=00:00:10.58 bitrate=10168.4kbits/s speed=0.0644x    frame=  331 fps=2.0 q=27.0 size=   13137kB time=00:00:10.75 bitrate=10010.4kbits/s speed=0.0649x    frame=  334 fps=2.0 q=29.0 size=   13137kB time=00:00:10.87 bitrate=9895.4kbits/s speed=0.0655x    frame=  339 fps=2.0 q=29.0 size=   18266kB time=00:00:11.08 bitrate=13500.1kbits/s speed=0.0665x    frame=  342 fps=2.0 q=29.0 size=   18266kB time=00:00:11.20 bitrate=13349.5kbits/s speed=0.0669x    frame=  345 fps=2.1 q=29.0 size=   18266kB time=00:00:11.33 bitrate=13202.3kbits/s speed=0.0674x    frame=  348 fps=2.0 q=29.0 size=   18266kB time=00:00:11.45 bitrate=13058.3kbits/s speed=0.0674x    frame=  351 fps=2.1 q=29.0 size=   18266kB time=00:00:11.58 bitrate=12917.4kbits/s speed=0.068x    frame=  354 fps=2.1 q=29.0 size=   18266kB time=00:00:11.70 bitrate=12779.5kbits/s speed=0.0682x    frame=  355 fps=2.1 q=29.0 size=   18266kB time=00:00:11.75 bitrate=12733.8kbits/s speed=0.068x    frame=  360 fps=2.1 q=29.0 size=   18266kB time=00:00:11.95 bitrate=12512.3kbits/s speed=0.0689x    frame=  361 fps=2.1 q=28.0 size=   18266kB time=00:00:12.00 bitrate=12468.6kbits/s speed=0.0689x    frame=  363 fps=2.1 q=28.0 size=   18266kB time=00:00:12.08 bitrate=12382.9kbits/s speed=0.0691x    frame=  364 fps=2.1 q=28.0 size=   18266kB time=00:00:12.12 bitrate=12340.0kbits/s speed=0.0691x    frame=  370 fps=2.1 q=28.0 size=   18266kB time=00:00:12.37 bitrate=12090.7kbits/s speed=0.0698x    frame=  373 fps=2.1 q=28.0 size=   18266kB time=00:00:12.50 bitrate=11969.8kbits/s speed=0.0703x    frame=  378 fps=2.1 q=28.0 size=   18266kB time=00:00:12.70 bitrate=11773.9kbits/s speed=0.0709x    frame=  382 fps=2.1 q=28.0 size=   18266kB time=00:00:12.87 bitrate=11621.2kbits/s speed=0.0716x    frame=  385 fps=2.1 q=28.0 size=   18266kB time=00:00:13.00 bitrate=11509.5kbits/s speed=0.0717x    frame=  389 fps=2.1 q=27.0 size=   18266kB time=00:00:13.16 bitrate=11363.5kbits/s speed=0.0724x    frame=  391 fps=2.1 q=27.0 size=   18266kB time=00:00:13.25 bitrate=11292.4kbits/s speed=0.0727x    frame=  392 fps=2.1 q=27.0 size=   18266kB time=00:00:13.29 bitrate=11256.7kbits/s speed=0.0725x    frame=  396 fps=2.2 q=27.0 size=   18266kB time=00:00:13.45 bitrate=11117.8kbits/s speed=0.0731x    frame=  400 fps=2.2 q=27.0 size=   18266kB time=00:00:13.62 bitrate=10981.6kbits/s speed=0.0735x    frame=  403 fps=2.2 q=27.0 size=   18266kB time=00:00:13.75 bitrate=10881.8kbits/s speed=0.0739x    frame=  407 fps=2.2 q=27.0 size=   18266kB time=00:00:13.91 bitrate=10751.2kbits/s speed=0.0743x    frame=  411 fps=2.2 q=27.0 size=   18266kB time=00:00:14.08 bitrate=10624.5kbits/s speed=0.0747x    frame=  415 fps=2.2 q=27.0 size=   18266kB time=00:00:14.25 bitrate=10500.0kbits/s speed=0.0753x    frame=  418 fps=2.2 q=26.0 size=   18266kB time=00:00:14.37 bitrate=10408.7kbits/s speed=0.0757x    frame=  419 fps=2.2 q=26.0 size=   18266kB time=00:00:14.41 bitrate=10378.4kbits/s speed=0.0757x    frame=  422 fps=2.2 q=26.0 size=   18266kB time=00:00:14.54 bitrate=10289.1kbits/s speed=0.0761x    frame=  424 fps=2.2 q=26.0 size=   18266kB time=00:00:14.62 bitrate=10230.8kbits/s speed=0.0762x    frame=  428 fps=2.2 q=24.0 size=   18266kB time=00:00:14.79 bitrate=10115.3kbits/s speed=0.0769x    frame=  430 fps=2.2 q=26.0 size=   18266kB time=00:00:14.87 bitrate=10058.8kbits/s speed=0.077x    frame=  433 fps=2.2 q=26.0 size=   23174kB time=00:00:15.00 bitrate=12655.1kbits/s speed=0.0773x    frame=  437 fps=2.2 q=26.0 size=   23174kB time=00:00:15.16 bitrate=12515.8kbits/s speed=0.0779x    frame=  440 fps=2.2 q=26.0 size=   23174kB time=00:00:15.29 bitrate=12413.5kbits/s speed=0.0782x    frame=  442 fps=2.3 q=26.0 size=   23174kB time=00:00:15.37 bitrate=12346.5kbits/s speed=0.0784x    frame=  443 fps=2.3 q=26.0 size=   23174kB time=00:00:15.41 bitrate=12312.8kbits/s speed=0.0784x    frame=  444 fps=2.3 q=26.0 size=   23174kB time=00:00:15.45 bitrate=12280.2kbits/s speed=0.0784x    frame=  447 fps=2.3 q=26.0 size=   23174kB time=00:00:15.58 bitrate=12181.7kbits/s speed=0.0786x    frame=  450 fps=2.2 q=26.0 size=   23174kB time=00:00:15.70 bitrate=12084.8kbits/s speed=0.0785x    frame=  454 fps=2.3 q=26.0 size=   23174kB time=00:00:15.87 bitrate=11957.6kbits/s speed=0.0791x    frame=  455 fps=2.3 q=26.0 size=   23174kB time=00:00:15.91 bitrate=11926.1kbits/s speed=0.0791x    frame=  458 fps=2.3 q=25.0 size=   23174kB time=00:00:16.04 bitrate=11833.2kbits/s speed=0.079x    frame=  460 fps=2.3 q=25.0 size=   23174kB time=00:00:16.12 bitrate=11772.3kbits/s speed=0.0792x    frame=  462 fps=2.3 q=26.0 size=   23174kB time=00:00:16.20 bitrate=11712.0kbits/s speed=0.0793x    frame=  464 fps=2.3 q=26.0 size=   23174kB time=00:00:16.29 bitrate=11651.6kbits/s speed=0.0793x    frame=  466 fps=2.3 q=26.0 size=   23174kB time=00:00:16.37 bitrate=11592.5kbits/s speed=0.0793x    frame=  468 fps=2.3 q=26.0 size=   23174kB time=00:00:16.45 bitrate=11534.1kbits/s speed=0.0793x    frame=  470 fps=2.3 q=26.0 size=   23174kB time=00:00:16.54 bitrate=11475.5kbits/s speed=0.0795x    frame=  471 fps=2.2 q=26.0 size=   23174kB time=00:00:16.58 bitrate=11447.1kbits/s speed=0.0792x    frame=  476 fps=2.3 q=26.0 size=   23174kB time=00:00:16.79 bitrate=11304.7kbits/s speed=0.0799x    frame=  477 fps=2.2 q=26.0 size=   23174kB time=00:00:16.83 bitrate=11277.1kbits/s speed=0.0794x    frame=  480 fps=2.3 q=26.0 size=   23174kB time=00:00:16.95 bitrate=11194.0kbits/s speed=0.0797x    frame=  482 fps=2.3 q=26.0 size=   23174kB time=00:00:17.04 bitrate=11138.9kbits/s speed=0.0799x    frame=  484 fps=2.3 q=23.0 size=   23174kB time=00:00:17.12 bitrate=11084.9kbits/s speed=0.0801x    frame=  485 fps=2.3 q=26.0 size=   23174kB time=00:00:17.16 bitrate=11057.8kbits/s speed=0.08x    frame=  491 fps=2.3 q=26.0 size=   27527kB time=00:00:17.41 bitrate=12946.4kbits/s speed=0.0808x    frame=  494 fps=2.3 q=26.0 size=   27527kB time=00:00:17.54 bitrate=12854.1kbits/s speed=0.0809x    frame=  498 fps=2.3 q=26.0 size=   27527kB time=00:00:17.70 bitrate=12733.7kbits/s speed=0.0812x    frame=  500 fps=2.1 q=-1.0 Lsize=   34083kB time=00:00:20.70 bitrate=13482.4kbits/s speed=0.086x    
video:34078kB audio:0kB subtitle:0kB other streams:0kB global headers:0kB muxing overhead: 0.014400%
bench: utime=781.384s
bench: maxrss=2157072kB
[libx264 @ 0x3d5b1c0] frame I:6     Avg QP:19.44  size:290008
[libx264 @ 0x3d5b1c0] frame P:273   Avg QP:25.89  size: 85021
[libx264 @ 0x3d5b1c0] frame B:221   Avg QP:24.69  size: 44997
[libx264 @ 0x3d5b1c0] consecutive B-frames: 35.2% 11.6% 18.0% 35.2%
[libx264 @ 0x3d5b1c0] mb I  I16..4: 16.3% 75.8%  7.9%
[libx264 @ 0x3d5b1c0] mb P  I16..4: 19.8% 21.7%  0.5%  P16..4: 33.0%  3.8%  2.5%  0.0%  0.0%    skip:18.6%
[libx264 @ 0x3d5b1c0] mb B  I16..4:  1.3%  2.6%  0.2%  B16..8: 36.0%  4.3%  0.8%  direct: 2.5%  skip:52.2%  L0:43.6% L1:51.7% BI: 4.7%
[libx264 @ 0x3d5b1c0] final ratefactor: 23.05
[libx264 @ 0x3d5b1c0] 8x8 transform intra:53.6% inter:82.1%
[libx264 @ 0x3d5b1c0] direct mvs  spatial:99.1% temporal:0.9%
[libx264 @ 0x3d5b1c0] coded y,uvDC,uvAC intra: 22.4% 32.2% 4.0% inter: 10.5% 11.3% 0.3%
[libx264 @ 0x3d5b1c0] i16 v,h,dc,p: 21% 24% 10% 45%
[libx264 @ 0x3d5b1c0] i8 v,h,dc,ddl,ddr,vr,hd,vl,hu: 14% 13% 18%  7% 10%  9% 11%  8% 10%
[libx264 @ 0x3d5b1c0] i4 v,h,dc,ddl,ddr,vr,hd,vl,hu: 14% 15%  8%  7% 14% 11% 14%  7% 11%
[libx264 @ 0x3d5b1c0] i8c dc,h,v,p: 57% 24% 13%  6%
[libx264 @ 0x3d5b1c0] Weighted P-Frames: Y:1.1% UV:0.7%
[libx264 @ 0x3d5b1c0] ref P L0: 65.6% 17.0%  8.5%  3.0%  1.9%  1.5%  1.3%  1.1%  0.2%  0.0%
[libx264 @ 0x3d5b1c0] ref B L0: 87.5%  7.0%  2.8%  1.1%  0.8%  0.5%  0.3%
[libx264 @ 0x3d5b1c0] ref B L1: 97.9%  2.1%
[libx264 @ 0x3d5b1c0] kb/s:13399.75
